<?xml version="1.0" encoding="UTF-8"?>
<svg version="1.1" xmlns="http://www.w3.org/2000/svg" width="512" height="512">
<path d="M0 0 C4.12390399 1.8931784 6.93280604 4.67825368 10.078125 7.8828125 C10.64956238 8.45707977 11.22099976 9.03134705 11.80975342 9.62301636 C13.62792945 11.4523581 15.43901492 13.28854193 17.25 15.125 C18.48391329 16.36894774 19.71828322 17.6124427 20.953125 18.85546875 C23.97406743 21.89842367 26.98867092 24.94753254 30 28 C24.99744121 34.04265914 19.56822676 39.56098043 14.0078125 45.08984375 C13.05209752 46.04368954 12.09660612 46.99775941 11.1413269 47.95204163 C8.64805084 50.44153194 6.15178475 52.92800224 3.65484619 55.41381836 C1.09878491 57.95957994 -1.45438505 60.50823777 -4.0078125 63.05664062 C-9.00241019 68.04057069 -14.00017799 73.02131048 -19 78 C-18.1544239 78.00089563 -18.1544239 78.00089563 -17.29176545 78.00180936 C16.19485576 78.03778331 49.68137073 78.09454444 83.16790639 78.17792095 C87.19787473 78.18793718 91.22784348 78.19778152 95.2578125 78.20751953 C96.06003228 78.2094609 96.86225206 78.21140228 97.68878153 78.21340248 C110.64065168 78.24433709 123.59250415 78.26137919 136.54440424 78.27319422 C149.85609696 78.28565022 163.16769765 78.3132512 176.47933221 78.35461307 C184.67873943 78.37962188 192.8779938 78.39312658 201.0774397 78.39142957 C206.71697011 78.39139958 212.35634601 78.40621553 217.99581608 78.43216428 C221.2388342 78.44666472 224.48147723 78.45292235 227.72452927 78.44580269 C267.95967868 78.36930218 302.42669314 90.0458436 332 118 C332.81082031 118.74636719 333.62164062 119.49273437 334.45703125 120.26171875 C357.8937412 142.59118256 373.24285517 176.23828218 374.32006836 208.67797852 C374.43828207 215.87020343 374.35142895 223.05811315 374.25 230.25 C374.22988044 232.76040223 374.21163944 235.27082024 374.1953125 237.78125 C374.15524891 243.8548899 374.07688258 249.92627607 374 256 C360.47 256 346.94 256 333 256 C332.97421875 252.59945312 332.9484375 249.19890625 332.921875 245.6953125 C332.88327463 242.33895184 332.83817286 238.9827356 332.79248047 235.62646484 C332.76455201 233.32445369 332.74320036 231.02235164 332.72900391 228.72021484 C332.52498733 197.47847719 325.40657406 170.73049601 303.09375 147.96875 C281.74745924 127.05045505 254.04744457 119.79097827 224.87615967 119.87974548 C223.29882124 119.87846385 223.29882124 119.87846385 221.6896174 119.87715632 C218.20289108 119.87552295 214.716214 119.88098745 211.22949219 119.88647461 C208.71543885 119.88675697 206.20138544 119.88659779 203.68733215 119.8860321 C198.29364151 119.88580516 192.89996643 119.88862221 187.50627899 119.89426994 C179.70811237 119.90243005 171.90995158 119.90500477 164.11178115 119.90625793 C151.45684165 119.90844139 138.80190864 119.91508227 126.14697266 119.92456055 C113.86084017 119.93375297 101.57470945 119.94082484 89.28857422 119.94506836 C88.15077743 119.94546244 88.15077743 119.94546244 86.98999485 119.94586449 C83.18430431 119.94716962 79.37861375 119.94843331 75.57292318 119.94967639 C44.04860971 119.96002701 12.5243083 119.97845342 -19 120 C-2.83 136.17 13.34 152.34 30 169 C26.24814542 173.37716368 22.65839751 177.46312247 18.6015625 181.49609375 C18.1217392 181.97450211 17.64191589 182.45291046 17.14755249 182.94581604 C15.64240542 184.44544879 14.13378786 185.94153128 12.625 187.4375 C11.59221405 188.46525983 10.55966009 189.49325285 9.52734375 190.52148438 C7.02089713 193.01701598 4.5113292 195.50938082 2 198 C-1.35483438 196.54190191 -3.55011664 194.69713436 -6.12554932 192.11495972 C-6.93880676 191.3044516 -7.75206421 190.49394348 -8.58996582 189.65887451 C-9.47325562 188.76839417 -10.35654541 187.87791382 -11.26660156 186.96044922 C-12.21256265 186.0139238 -13.15896473 185.06783893 -14.10577393 184.12216187 C-16.67193618 181.55657326 -19.23188665 178.98486641 -21.79076862 176.41201925 C-24.46710097 173.72318166 -27.1491008 171.04000938 -29.83050537 168.35623169 C-34.90595783 163.27456387 -39.97629063 158.18781945 -45.04480529 153.09923279 C-50.81592905 147.30575182 -56.59273507 141.51795103 -62.37002611 135.7306211 C-74.25301957 123.82672435 -86.12885446 111.91571235 -98 100 C-96.54190191 96.64516562 -94.69713436 94.44988336 -92.11495972 91.87445068 C-91.3044516 91.06119324 -90.49394348 90.24793579 -89.65887451 89.41003418 C-88.76839417 88.52674438 -87.87791382 87.64345459 -86.96044922 86.73339844 C-86.0139238 85.78743735 -85.06783893 84.84103527 -84.12216187 83.89422607 C-81.55657326 81.32806382 -78.98486641 78.76811335 -76.41201925 76.20923138 C-73.72318166 73.53289903 -71.04000938 70.8508992 -68.35623169 68.16949463 C-63.27456387 63.09404217 -58.18781945 58.02370937 -53.09923279 52.95519471 C-47.30575182 47.18407095 -41.51795103 41.40726493 -35.7306211 35.62997389 C-23.82672435 23.74698043 -11.91571235 11.87114554 0 0 Z " fill="#000000" transform="translate(98,0)"/>
<path d="M0 0 C13.53 0 27.06 0 41 0 C41.02578125 3.48433594 41.0515625 6.96867187 41.078125 10.55859375 C41.1167063 13.99104361 41.16181439 17.42335133 41.20751953 20.85571289 C41.23547803 23.21306393 41.2568153 25.57050434 41.27099609 27.92797852 C41.46845568 58.92255141 48.77105583 85.45070769 70.90625 108.03125 C92.25254076 128.94954495 119.95255543 136.20902173 149.12384033 136.12025452 C150.70117876 136.12153615 150.70117876 136.12153615 152.3103826 136.12284368 C155.79710892 136.12447705 159.283786 136.11901255 162.77050781 136.11352539 C165.28456115 136.11324303 167.79861456 136.11340221 170.31266785 136.1139679 C175.70635849 136.11419484 181.10003357 136.11137779 186.49372101 136.10573006 C194.29188763 136.09756995 202.09004842 136.09499523 209.88821885 136.09374207 C222.54315835 136.09155861 235.19809136 136.08491773 247.85302734 136.07543945 C260.13915983 136.06624703 272.42529055 136.05917516 284.71142578 136.05493164 C285.84922257 136.05453756 285.84922257 136.05453756 287.01000515 136.05413551 C290.81569569 136.05283038 294.62138625 136.05156669 298.42707682 136.05032361 C329.95139029 136.03997299 361.4756917 136.02154658 393 136 C376.83 119.83 360.66 103.66 344 87 C347.75185458 82.62283632 351.34160249 78.53687753 355.3984375 74.50390625 C356.11817245 73.78629372 356.11817245 73.78629372 356.85244751 73.05418396 C358.35759458 71.55455121 359.86621214 70.05846872 361.375 68.5625 C362.40778595 67.53474017 363.44033991 66.50674715 364.47265625 65.47851562 C366.97910287 62.98298402 369.4886708 60.49061918 372 58 C375.35483438 59.45809809 377.55011664 61.30286564 380.12554932 63.88504028 C380.93880676 64.6955484 381.75206421 65.50605652 382.58996582 66.34112549 C383.47325562 67.23160583 384.35654541 68.12208618 385.26660156 69.03955078 C386.21256265 69.9860762 387.15896473 70.93216107 388.10577393 71.87783813 C390.67193618 74.44342674 393.23188665 77.01513359 395.79076862 79.58798075 C398.46710097 82.27681834 401.1491008 84.95999062 403.83050537 87.64376831 C408.90595783 92.72543613 413.97629063 97.81218055 419.04480529 102.90076721 C424.81592905 108.69424818 430.59273507 114.48204897 436.37002611 120.2693789 C448.25301957 132.17327565 460.12885446 144.08428765 472 156 C470.54190191 159.35483438 468.69713436 161.55011664 466.11495972 164.12554932 C464.89919754 165.34543549 464.89919754 165.34543549 463.65887451 166.58996582 C462.76839417 167.47325562 461.87791382 168.35654541 460.96044922 169.26660156 C460.0139238 170.21256265 459.06783893 171.15896473 458.12216187 172.10577393 C455.55657326 174.67193618 452.98486641 177.23188665 450.41201925 179.79076862 C447.72318166 182.46710097 445.04000938 185.1491008 442.35623169 187.83050537 C437.27456387 192.90595783 432.18781945 197.97629063 427.09923279 203.04480529 C421.30575182 208.81592905 415.51795103 214.59273507 409.7306211 220.37002611 C397.82672435 232.25301957 385.91571235 244.12885446 374 256 C369.87609601 254.1068216 367.06719396 251.32174632 363.921875 248.1171875 C363.35043762 247.54292023 362.77900024 246.96865295 362.19024658 246.37698364 C360.37207055 244.5476419 358.56098508 242.71145807 356.75 240.875 C355.51608671 239.63105226 354.28171678 238.3875573 353.046875 237.14453125 C350.02593257 234.10157633 347.01132908 231.05246746 344 228 C349.00255879 221.95734086 354.43177324 216.43901957 359.9921875 210.91015625 C360.94790248 209.95631046 361.90339388 209.00224059 362.8586731 208.04795837 C365.35194916 205.55846806 367.84821525 203.07199776 370.34515381 200.58618164 C372.90121509 198.04042006 375.45438505 195.49176223 378.0078125 192.94335938 C383.00241019 187.95942931 388.00017799 182.97868952 393 178 C392.4362826 177.99940291 391.8725652 177.99880582 391.29176545 177.99819064 C357.80514424 177.96221669 324.31862927 177.90545556 290.83209361 177.82207905 C286.80212527 177.81206282 282.77215652 177.80221848 278.7421875 177.79248047 C277.93996772 177.7905391 277.13774794 177.78859772 276.31121847 177.78659752 C263.35934832 177.75566291 250.40749585 177.73862081 237.45559576 177.72680578 C224.14390304 177.71434978 210.83230235 177.6867488 197.52066779 177.64538693 C189.32126057 177.62037812 181.1220062 177.60687342 172.9225603 177.60857043 C167.28302989 177.60860042 161.64365399 177.59378447 156.00418392 177.56783572 C152.7611658 177.55333528 149.51852277 177.54707765 146.27547073 177.55419731 C106.04032132 177.63069782 71.57330686 165.9541564 42 138 C41.18917969 137.25363281 40.37835938 136.50726563 39.54296875 135.73828125 C16.1062588 113.40881744 0.75714483 79.76171782 -0.32006836 47.32202148 C-0.43828207 40.12979657 -0.35142895 32.94188685 -0.25 25.75 C-0.22988044 23.23959777 -0.21163944 20.72917976 -0.1953125 18.21875 C-0.15524891 12.1451101 -0.07688258 6.07372393 0 0 Z " fill="#000000" transform="translate(40,256)"/>
</svg>
